<?xml version="1.0" standalone="no"?>
<!DOCTYPE svg PUBLIC "-//W3C//DTD SVG 20010904//EN"
 "http://www.w3.org/TR/2001/REC-SVG-20010904/DTD/svg10.dtd">
<svg version="1.0" xmlns="http://www.w3.org/2000/svg"
 width="64.000000pt" height="64.000000pt" viewBox="0 0 64.000000 64.000000"
 preserveAspectRatio="xMidYMid meet">

<g transform="translate(0.000000,64.000000) scale(0.100000,-0.100000)"
fill="#fff" stroke="none">
<path d="M223 622 c-109 -39 -178 -112 -210 -221 -29 -102 4 -228 82 -306 122
-121 328 -121 450 0 91 92 118 241 64 356 -69 146 -241 223 -386 171z m217
-52 c61 -30 97 -65 128 -125 38 -71 38 -179 0 -250 -53 -101 -134 -150 -248
-150 -114 0 -195 49 -248 150 -36 69 -38 179 -3 245 40 76 95 123 181 151 43
14 142 3 190 -21z"/>
<path d="M307 474 c-4 -4 -7 -57 -7 -118 l0 -110 -48 47 c-38 37 -50 45 -60
35 -10 -10 1 -26 50 -75 34 -35 69 -63 78 -63 9 0 44 28 78 63 51 52 61 66 49
75 -10 9 -23 2 -58 -34 l-44 -45 -5 112 c-5 104 -13 133 -33 113z"/>
</g>
</svg>
