<?xml version="1.0" standalone="no"?>
<!DOCTYPE svg PUBLIC "-//W3C//DTD SVG 20010904//EN"
 "http://www.w3.org/TR/2001/REC-SVG-20010904/DTD/svg10.dtd">
<svg version="1.0" xmlns="http://www.w3.org/2000/svg"
 width="64.000000pt" height="64.000000pt" viewBox="0 0 64.000000 64.000000"
 preserveAspectRatio="xMidYMid meet">

<g transform="translate(0.000000,64.000000) scale(0.100000,-0.100000)"
fill="#EE2537" stroke="none">
<path d="M94 601 c-18 -11 -45 -36 -60 -57 -25 -32 -29 -47 -29 -99 0 -94 46
-175 165 -296 52 -53 107 -104 122 -114 27 -16 29 -16 55 0 16 10 71 61 123
114 119 121 165 202 165 296 0 52 -4 67 -29 99 -41 55 -82 76 -144 76 -56 0
-83 -10 -119 -43 l-23 -20 -22 20 c-37 33 -64 43 -120 43 -35 0 -64 -7 -84
-19z m182 -65 l44 -43 45 45 c44 44 46 44 100 40 40 -3 62 -11 81 -29 73 -66
66 -150 -22 -275 -40 -58 -187 -204 -204 -204 -17 0 -164 146 -204 204 -84
120 -94 199 -33 265 29 30 52 40 106 40 39 1 49 -4 87 -43z"/>
</g>
</svg>
