<?xml version="1.0" standalone="no"?>
<!DOCTYPE svg PUBLIC "-//W3C//DTD SVG 20010904//EN"
 "http://www.w3.org/TR/2001/REC-SVG-20010904/DTD/svg10.dtd">
<svg version="1.0" xmlns="http://www.w3.org/2000/svg"
 width="64.000000pt" height="64.000000pt" viewBox="0 0 64.000000 64.000000"
 preserveAspectRatio="xMidYMid meet">

<g transform="translate(0.000000,64.000000) scale(0.100000,-0.100000)"
fill="#EE2537" stroke="none">
<path d="M241 625 c-70 -20 -111 -46 -160 -101 -72 -82 -94 -203 -56 -314 25
-76 109 -160 185 -185 123 -42 241 -15 331 74 89 90 116 208 74 331 -25 74
-110 160 -180 183 -75 25 -134 28 -194 12z m34 -216 l45 -42 45 42 c48 44 55
47 73 29 18 -18 15 -25 -29 -73 l-42 -45 42 -45 c44 -48 47 -55 29 -73 -18
-18 -25 -15 -73 29 l-45 42 -45 -42 c-48 -44 -55 -47 -73 -29 -18 18 -15 25
29 73 l42 45 -42 45 c-44 48 -47 55 -29 73 18 18 25 15 73 -29z"/>
</g>
</svg>
